<svg width="654" height="654" viewBox="0 0 654 654" fill="none" xmlns="http://www.w3.org/2000/svg">
<path opacity="0.102307" fill-rule="evenodd" clip-rule="evenodd" d="M354.451 613.852C329.826 636.025 291.888 634.037 269.715 609.411L40.1479 354.451C17.9748 329.826 19.963 291.888 44.5887 269.715L299.549 40.1479C324.174 17.9748 362.112 19.963 384.285 44.5887L613.852 299.549C636.025 324.174 634.037 362.112 609.411 384.285L354.451 613.852Z" fill="#2196F3"/>
<path opacity="0.0535017" fill-rule="evenodd" clip-rule="evenodd" d="M221.587 315.242C206.401 328.916 183.006 327.689 169.333 312.504L57.7579 188.587C44.0845 173.401 45.3105 150.006 60.4964 136.333L184.413 24.7579C199.599 11.0845 222.994 12.3105 236.667 27.4964L348.242 151.413C361.916 166.599 360.689 189.994 345.504 203.667L221.587 315.242Z" fill="#00BCD4"/>
<path fill-rule="evenodd" clip-rule="evenodd" d="M489.894 264.433C481.683 271.833 469.026 271.17 461.634 262.951L386.469 179.382C379.088 171.176 379.75 158.541 387.949 151.151L471.433 75.9093C479.644 68.509 492.301 69.1727 499.692 77.3911L574.858 160.96C582.239 169.167 581.577 181.802 573.378 189.191L489.894 264.433Z" fill="#2196F3"/>
<mask id="mask0_1_93" style="mask-type:luminance" maskUnits="userSpaceOnUse" x="381" y="70" width="199" height="200">
<path fill-rule="evenodd" clip-rule="evenodd" d="M489.894 264.433C481.683 271.833 469.026 271.17 461.634 262.951L386.469 179.382C379.088 171.176 379.75 158.541 387.949 151.151L471.433 75.9093C479.644 68.509 492.301 69.1727 499.692 77.3911L574.858 160.96C582.239 169.167 581.577 181.802 573.378 189.191L489.894 264.433Z" fill="white"/>
</mask>
<g mask="url(#mask0_1_93)">
</g>
<path d="M538.59 383.053C534.074 387.123 527.113 386.758 523.047 382.238L490.973 346.578C486.913 342.064 487.278 335.115 491.787 331.051L527.41 298.945C531.926 294.875 538.887 295.24 542.953 299.76L575.027 335.42C579.087 339.933 578.722 346.883 574.213 350.947L538.59 383.053Z" stroke="#BBDEFB" stroke-width="8"/>
<path fill-rule="evenodd" clip-rule="evenodd" d="M432.311 565.431C424.1 572.831 411.443 572.167 404.051 563.949L327.47 478.806C320.089 470.599 320.752 457.965 328.951 450.575L414.006 373.916C422.217 366.516 434.874 367.18 442.266 375.398L518.847 460.541C526.228 468.748 525.566 481.382 517.367 488.772L432.311 565.431Z" fill="#2196F3"/>
<mask id="mask1_1_93" style="mask-type:luminance" maskUnits="userSpaceOnUse" x="322" y="368" width="202" height="203">
<path fill-rule="evenodd" clip-rule="evenodd" d="M432.311 565.431C424.1 572.831 411.443 572.167 404.051 563.949L327.47 478.806C320.089 470.599 320.752 457.965 328.951 450.575L414.006 373.916C422.217 366.516 434.874 367.18 442.266 375.398L518.847 460.541C526.228 468.748 525.566 481.382 517.367 488.772L432.311 565.431Z" fill="white"/>
</mask>
<g mask="url(#mask1_1_93)">
</g>
<path fill-rule="evenodd" clip-rule="evenodd" d="M277.907 401.105C264.774 412.931 244.54 411.871 232.715 398.737L138.367 293.953C126.541 280.82 127.602 260.586 140.736 248.761L251.093 149.395C264.226 137.569 284.46 138.629 296.285 151.763L390.633 256.547C402.458 269.68 401.398 289.914 388.264 301.739L277.907 401.105Z" fill="#2196F3"/>
</svg>
