<svg width="307" height="344" viewBox="0 0 307 344" fill="none" xmlns="http://www.w3.org/2000/svg">
<path opacity="0.05" fill-rule="evenodd" clip-rule="evenodd" d="M299.683 160.867C294.015 185.894 258.107 185.155 253.473 159.916L251.279 147.968C250.703 144.831 250.77 141.609 251.474 138.497C257.142 113.47 293.05 114.209 297.684 139.448L299.878 151.396C300.454 154.533 300.388 157.755 299.683 160.867Z" fill="#00BCD4"/>
<path opacity="0.0535017" fill-rule="evenodd" clip-rule="evenodd" d="M305.288 101.206C301.096 119.785 274.248 120.082 270.821 101.347L269.015 91.4713C268.591 89.1529 268.648 86.7376 269.166 84.4385C273.358 65.8595 300.206 65.563 303.633 84.2982L305.439 94.1736C305.863 96.492 305.806 98.9073 305.288 101.206Z" fill="#2196F3"/>
<path opacity="0.05" fill-rule="evenodd" clip-rule="evenodd" d="M54.3858 231.278C48.7177 256.305 12.8103 255.567 8.17611 230.328L5.98231 218.38C5.40618 215.242 5.47245 212.02 6.17711 208.909C11.8452 183.882 47.7526 184.621 52.3868 209.859L54.5806 221.807C55.1567 224.945 55.0905 228.167 54.3858 231.278Z" fill="#00BCD4"/>
<path opacity="0.0535017" fill-rule="evenodd" clip-rule="evenodd" d="M37.6808 151.206C33.4895 169.785 6.64093 170.082 3.21437 151.347L1.40822 141.471C0.984197 139.153 1.0409 136.738 1.55956 134.439C5.75086 115.859 32.5994 115.563 36.026 134.298L37.8322 144.174C38.2562 146.492 38.1995 148.907 37.6808 151.206Z" fill="#2196F3"/>
</svg>
