<svg width="270" height="294" viewBox="0 0 270 294" fill="none" xmlns="http://www.w3.org/2000/svg">
<path opacity="0.05" fill-rule="evenodd" clip-rule="evenodd" d="M160.437 274.14C148.482 284.863 130.106 283.9 119.337 271.986L41.0137 185.34C30.1848 173.361 31.1544 154.861 43.1761 144.079L130.181 66.0471C142.137 55.3245 160.512 56.2875 171.281 68.201L249.604 154.847C260.433 166.827 259.464 185.326 247.442 196.108L160.437 274.14Z" fill="#00BCD4"/>
<path opacity="0.0535017" fill-rule="evenodd" clip-rule="evenodd" d="M100.959 173.938C93.7788 180.404 82.7166 179.824 76.2512 172.643L11.7067 100.959C5.24125 93.7788 5.821 82.7166 13.0016 76.2512L84.6855 11.7067C91.8661 5.24125 102.928 5.821 109.394 13.0016L173.938 84.6855C180.404 91.8661 179.824 102.928 172.643 109.394L100.959 173.938Z" fill="#2196F3"/>
</svg>
