<svg width="275" height="274" viewBox="0 0 275 274" fill="none" xmlns="http://www.w3.org/2000/svg">
<path opacity="0.05" fill-rule="evenodd" clip-rule="evenodd" d="M139.053 253.728C127.098 264.451 108.723 263.488 97.9535 251.575L19.63 164.929C8.80105 152.949 9.77057 134.45 21.7923 123.668L108.797 45.6355C120.753 34.9129 139.128 35.8759 149.897 47.7894L228.221 134.435C239.049 146.415 238.08 164.914 226.058 175.696L139.053 253.728Z" fill="#00BCD4"/>
<path opacity="0.0535017" fill-rule="evenodd" clip-rule="evenodd" d="M189.409 173.938C182.228 180.404 171.166 179.824 164.7 172.643L100.156 100.959C93.6905 93.7788 94.2702 82.7166 101.451 76.2512L173.135 11.7067C180.315 5.24125 191.378 5.821 197.843 13.0016L262.387 84.6855C268.853 91.8661 268.273 102.928 261.093 109.394L189.409 173.938Z" fill="#2196F3"/>
</svg>
