<svg width="197" height="360" viewBox="0 0 197 360" fill="none" xmlns="http://www.w3.org/2000/svg">
<path opacity="0.05" fill-rule="evenodd" clip-rule="evenodd" d="M58.6642 340.588C46.7067 351.319 28.3217 350.356 17.5514 338.434L-87.3893 222.269C-98.2096 210.291 -97.2406 191.802 -85.2276 181.021L31.3358 76.4118C43.2933 65.6807 61.6784 66.6442 72.4486 78.5665L177.389 194.732C188.21 206.709 187.241 225.198 175.228 235.979L58.6642 340.588Z" fill="#00BCD4"/>
<path opacity="0.0535017" fill-rule="evenodd" clip-rule="evenodd" d="M-11.9729 216.293C-19.1535 222.759 -30.2157 222.179 -36.6812 214.998L-121.293 121.027C-127.759 113.847 -127.179 102.784 -119.998 96.3188L-26.0271 11.7067C-18.8465 5.24126 -7.78426 5.821 -1.31885 13.0016L83.2933 106.973C89.7587 114.153 89.179 125.216 81.9984 131.681L-11.9729 216.293Z" fill="#2196F3"/>
</svg>
