<svg width="187" height="360" viewBox="0 0 187 360" fill="none" xmlns="http://www.w3.org/2000/svg">
<path opacity="0.05" fill-rule="evenodd" clip-rule="evenodd" d="M48.6642 340.588C36.7067 351.319 18.3217 350.356 7.55138 338.434L-97.3893 222.269C-108.21 210.291 -107.241 191.802 -95.2276 181.021L21.3358 76.4118C33.2933 65.6807 51.6784 66.6442 62.4486 78.5665L167.389 194.732C178.21 206.709 177.241 225.198 165.228 235.979L48.6642 340.588Z" fill="#00BCD4"/>
<path opacity="0.0535017" fill-rule="evenodd" clip-rule="evenodd" d="M-21.9729 216.293C-29.1535 222.759 -40.2157 222.179 -46.6812 214.998L-131.293 121.027C-137.759 113.847 -137.179 102.784 -129.998 96.3188L-36.0271 11.7067C-28.8465 5.24126 -17.7843 5.821 -11.3188 13.0016L73.2933 106.973C79.7587 114.153 79.179 125.216 71.9984 131.681L-21.9729 216.293Z" fill="#2196F3"/>
</svg>
