<svg width="103" height="360" viewBox="0 0 103 360" fill="none" xmlns="http://www.w3.org/2000/svg">
<path opacity="0.05" fill-rule="evenodd" clip-rule="evenodd" d="M191.664 340.588C179.707 351.319 161.322 350.356 150.551 338.434L45.6107 222.269C34.7904 210.291 35.7594 191.802 47.7724 181.021L164.336 76.4118C176.293 65.6807 194.678 66.6442 205.449 78.5665L310.389 194.732C321.21 206.709 320.241 225.198 308.228 235.979L191.664 340.588Z" fill="#00BCD4"/>
<path opacity="0.0535017" fill-rule="evenodd" clip-rule="evenodd" d="M121.027 216.293C113.847 222.759 102.784 222.179 96.3188 214.998L11.7067 121.027C5.24126 113.847 5.821 102.784 13.0016 96.3188L106.973 11.7067C114.153 5.24126 125.216 5.821 131.681 13.0016L216.293 106.973C222.759 114.153 222.179 125.216 214.998 131.681L121.027 216.293Z" fill="#2196F3"/>
</svg>
